<svg width="0" height="0" class="hidden">
  <symbol fill="none" xmlns="http://www.w3.org/2000/svg" viewBox="0 0 26 39" id="slider-left">
    <path d="M25.9913 3.24993C25.9913 3.56219 25.8125 3.91383 25.545 4.14844L8.00063 19.4998L25.545 34.8511C25.8131 35.0857 25.9913 35.4368 25.9913 35.7496C25.9913 36.0624 25.8125 36.4135 25.545 36.6481L23.3131 38.601C23.045 38.8356 22.6438 38.9915 22.2863 38.9915C21.9288 38.9915 21.5275 38.8351 21.2594 38.601L0.455627 20.3977C0.187502 20.1631 0.00937653 19.812 0.00937653 19.4992C0.00937653 19.1864 0.188127 18.8353 0.455627 18.6007L21.2594 0.397427C21.5275 0.162818 21.9288 0.00695801 22.2863 0.00695801C22.6438 0.00695801 23.045 0.163365 23.3131 0.397427L25.545 2.35032C25.8131 2.58493 25.9913 2.89719 25.9913 3.24883V3.24993Z" fill="#666666"></path>
  </symbol>
  <symbol fill="none" xmlns="http://www.w3.org/2000/svg" viewBox="0 0 30 39" id="slider-right">
    <path d="M29.6512 19.4997C29.6512 19.812 29.4517 20.1636 29.1531 20.3982L5.93029 38.6015C5.63098 38.8361 5.18308 38.992 4.78401 38.992C4.38494 38.992 3.93703 38.8356 3.63773 38.6015L1.14633 36.6486C0.847031 36.414 0.648193 36.1017 0.648193 35.7501C0.648193 35.4378 0.847728 35.0862 1.14633 34.8516L20.7308 19.5003L1.14633 4.14894C0.847031 3.91433 0.648193 3.56323 0.648193 3.25042C0.648193 2.93761 0.847728 2.58651 1.14633 2.3519L3.63773 0.399014C3.93703 0.164405 4.38494 0.00854492 4.78401 0.00854492C5.18308 0.00854492 5.63098 0.164952 5.93029 0.399014L29.1531 18.6023C29.4524 18.8369 29.6512 19.188 29.6512 19.5008V19.4997Z" fill="#666666"></path>
  </symbol>
</svg>